<svg xmlns="http://www.w3.org/2000/svg" viewBox="0 0 742.22 317.63"><defs><style>.cls-1{fill:#fff;}.cls-1,.cls-2{fill-rule:evenodd;}.cls-2{fill:#e3000f;}</style></defs><title>1Asset 1</title><g id="Layer_2" data-name="Layer 2"><g id="Warstwa_1" data-name="Warstwa 1"><path class="cls-1" d="M300.77,146.47H237V74.75h63.76V90.67H252.93v11.94h43.86v15.92H252.93v12h47.84v15.92Zm68.84-55.8H325.76v11.94h39.87v15.92H325.76v27.94H309.84V74.75h59.77V90.67ZM439,146.47H375.28V74.75H439V90.67H391.2v11.94h43.86v15.92H391.2v12H439v15.92Zm80.2,0H503.32a10.59,10.59,0,0,1-6.38-2,19.29,19.29,0,0,1-4.65-5.23L464.85,98.3a1.42,1.42,0,0,0-1.41-.91v49.08H447.53V74.75h15.91a10.86,10.86,0,0,1,6.39,2,19.86,19.86,0,0,1,4.64,5.14l27.36,41a1.49,1.49,0,0,0,1.49,1V74.75h15.92v71.72Zm77.46-15.92a16,16,0,0,1-15.91,15.92H533V74.75h47.84A15.42,15.42,0,0,1,592,79.4a15.2,15.2,0,0,1,4.72,11.27v39.88Zm-15.91-1.66V92.25c0-1-.56-1.58-1.66-1.58H548.87v39.88h30.26a1.47,1.47,0,0,0,1.66-1.66Zm44.72,17.58H609.59V130.55h15.92Z"/><path class="cls-2" d="M659.28,146.47H643.36V74.75h15.92v71.72Zm82.94-55.8H670.5V74.75h71.72V90.67Zm-27.86,55.8H698.44V98.63h15.92Z"/><path class="cls-1" d="M139.33.14c-9.21,4.11-17.37,7.8-24.79,11.2V40.86L91.59,51.51V22c-7.2,3.39-13.82,6.54-20.35,9.65V61L53.29,69.27V40.14c-5.24,2.46-10.69,5-16.58,7.67L36.78,256c32-31.12,63.78-57.2,102.78-79.48,0-58.16-.1-118.18-.23-176.38ZM73,153.82c-.68-4.4-.63-38.67-.18-44.42,2.1-27,28.56-37.37,30.66-12.79.49,5.65.56,39.74-.27,44.91A154.14,154.14,0,0,0,73,153.82Z"/><path class="cls-2" d="M0,317.63C52.88,244.47,140.46,175.28,221.63,157v37.41C142,210.06,59.53,276.29,0,317.63Z"/><path class="cls-1" d="M221.82,112.54a148.06,148.06,0,0,1-.8,15,43.07,43.07,0,0,1-1.52,9c-2.39,8.25-6.34,12.33-11.87,13.38-20.15,3.82-37.6,11.35-53.39,18.46V47.54l53.3,21.55c5.76,2.33,9.8,7.52,12,16.38a75,75,0,0,1,1.79,11.75c.38,4.49.56,9.59.51,15.32Zm-11.69-1.32A124.25,124.25,0,0,0,209.34,94c-.58-4-1.66-6.23-3.25-6.61l-14.93-3.59L173.6,79.62q0,13.78-.07,27.53t-.07,27.34l17.48-.24,14.87-.2c1.53,0,2.62-2,3.27-6A115.37,115.37,0,0,0,210.13,111.22Z"/><path class="cls-1" d="M221.59,58.56V33.33l-11.06-5.52V53.62l11.07,4.94Zm-18-34.21-18.32-9v27c5.31,2.34,10.6,4.71,18.32,8.16V24.35Zm-28.44-14C169,7.26,162.22,3.91,154.42,0l-.07,29.15c9,3.8,15.44,6.52,20.76,8.8Z"/></g></g></svg>